<?xml version="1.0" encoding="utf-8"?>
<!-- Generator: Adobe Illustrator 26.5.0, SVG Export Plug-In . SVG Version: 6.00 Build 0)  -->
<svg version="1.1" id="Calque_1" xmlns="http://www.w3.org/2000/svg" xmlns:xlink="http://www.w3.org/1999/xlink" x="0px" y="0px"
	 width="25px" height="25px" viewBox="0 0 25 25" style="enable-background:new 0 0 25 25;" xml:space="preserve">
<style type="text/css">
	.st0{fill:#F0F0F0;}
</style>
<g>
	<path class="st0" d="M4.5,7.2h5.1V4.7H4.5C3.3,4.7,2.2,5.2,1.3,6S0,8,0,9.2v11.3c0,1.2,0.5,2.3,1.3,3.1c0.8,0.8,2,1.3,3.1,1.3h11.3
		c1.2,0,2.3-0.5,3.1-1.3c0.8-0.8,1.3-2,1.3-3.1v-5.1h-2.5v5.1c0,0.5-0.2,1-0.7,1.5c-0.3,0.3-0.8,0.7-1.5,0.7H4.3
		c-0.5,0-1-0.2-1.5-0.7c-0.3-0.3-0.7-0.8-0.7-1.5V9.2c0-0.5,0.2-1,0.7-1.5C3.5,7.5,4,7.2,4.5,7.2L4.5,7.2z"/>
	<path class="st0" d="M17.7,0.1v4.8h-4.8v2.5h4.8v4.8h2.5V7.4H25V4.9h-4.8V0.1C20.2,0.1,17.7,0.1,17.7,0.1z"/>
</g>
</svg>
