<?xml version="1.0" encoding="utf-8"?>
<!-- Generator: Adobe Illustrator 26.5.0, SVG Export Plug-In . SVG Version: 6.00 Build 0)  -->
<svg version="1.1" id="Calque_1" xmlns="http://www.w3.org/2000/svg" xmlns:xlink="http://www.w3.org/1999/xlink" x="0px" y="0px"
	 width="15px" height="15px" viewBox="0 0 15 15" style="enable-background:new 0 0 15 15;" xml:space="preserve">
<style type="text/css">
	.st0{fill:#2D2D2D;}
</style>
<g>
	<path class="st0" d="M4,3.5h7v1.4H4V3.5z"/>
	<path class="st0" d="M4,7h7v1.4H4V7z"/>
	<path class="st0" d="M12.2,0.1H2.8C2.1,0.1,1.5,0.3,1,0.8S0.2,1.9,0.2,2.6v7c0,0.7,0.3,1.3,0.8,1.8s1.1,0.8,1.8,0.8h1.7L7,14.8
		c0.1,0.1,0.3,0.2,0.5,0.2s0.4-0.1,0.5-0.2l2.6-2.6h1.6c0.7,0,1.3-0.3,1.8-0.8c0.5-0.5,0.8-1.1,0.8-1.8v-7c0-0.7-0.3-1.3-0.8-1.8
		C13.6,0.3,12.9,0.1,12.2,0.1L12.2,0.1z M13.4,9.6L13.4,9.6c0,0.3-0.1,0.6-0.3,0.8c-0.2,0.2-0.5,0.3-0.8,0.3h-1.9
		c-0.2,0-0.4,0.1-0.5,0.2l-2.3,2.3L5.4,11c-0.1-0.1-0.3-0.2-0.5-0.2h-2c-0.3,0-0.6-0.1-0.8-0.3C1.9,10.3,1.8,10,1.8,9.7v-7
		c0-0.3,0.1-0.6,0.3-0.8c0.2-0.2,0.5-0.3,0.8-0.3h9.3c0.3,0,0.6,0.1,0.8,0.3c0.2,0.2,0.3,0.5,0.3,0.8V9.6z"/>
</g>
</svg>
