<?xml version="1.0" encoding="utf-8"?>
<!-- Generator: Adobe Illustrator 26.5.0, SVG Export Plug-In . SVG Version: 6.00 Build 0)  -->
<svg version="1.1" id="Calque_1" xmlns="http://www.w3.org/2000/svg" xmlns:xlink="http://www.w3.org/1999/xlink" x="0px" y="0px"
	 width="25px" height="25px" viewBox="0 0 25 25" style="enable-background:new 0 0 25 25;" xml:space="preserve">
<style type="text/css">
	.st0{fill:#F0F0F0;}
</style>
<g>
	<path class="st0" d="M6,17.1h12.4v2.5H6V17.1z"/>
	<path class="st0" d="M13.8,0.5L13.8,0.5L13.8,0.5c-0.5-0.3-1-0.5-1.5-0.5c-0.5,0-1,0.2-1.5,0.5l0,0L1.9,7.1l-1,0.8v13.7
		c0,0.8,0.3,1.7,1,2.3c0.7,0.7,1.5,1,2.3,1h16.6c0.8,0,1.7-0.3,2.3-1c0.7-0.7,1-1.5,1-2.3V7.9l-1-0.8L13.8,0.5z M21.4,21.5
		c0,0.2-0.2,0.5-0.2,0.7c-0.2,0.2-0.3,0.2-0.7,0.2H4.1c-0.5,0-0.8-0.3-0.8-0.8V9.1l8.9-6.6h0.2l8.9,6.6v12.4H21.4z"/>
</g>
</svg>
