<?xml version="1.0" encoding="utf-8"?>
<!-- Generator: Adobe Illustrator 26.5.0, SVG Export Plug-In . SVG Version: 6.00 Build 0)  -->
<svg version="1.1" id="Calque_1" xmlns="http://www.w3.org/2000/svg" xmlns:xlink="http://www.w3.org/1999/xlink" x="0px" y="0px"
	 width="25px" height="25px" viewBox="0 0 25 25" style="enable-background:new 0 0 25 25;" xml:space="preserve">
<style type="text/css">
	.st0{fill:#F0F0F0;}
</style>
<path class="st0" d="M18.5,1.4c-1.8-0.2-3.7,0.7-5,1.8c-0.3,0.3-0.7,0.7-0.8,1c-0.3-0.5-0.7-0.7-0.8-1c-1.3-1.3-3.2-1.8-5-1.8
	C3,1.6,0,4.8,0,8.6c0,2.7,1.2,5.3,3.2,7l9.3,8l9.3-8c2-1.8,3.2-4.3,3.2-7C25,4.9,22.2,1.6,18.5,1.4L18.5,1.4z M20.2,13.9l-7.7,6.5
	l-7.7-6.5c-1.5-1.3-2.3-3.2-2.3-5.2c0-2.5,1.8-4.5,4.2-4.7H7c1.2,0,2.3,0.5,3.2,1.3c0.8,0.8,1.3,1.8,1.3,3.2v0.7h2.3V8.6
	c0-1.2,0.5-2.3,1.3-3.2c0.8-0.8,2-1.3,3.2-1.2c2.3,0.2,4.2,2.2,4.2,4.7C22.5,10.6,21.7,12.6,20.2,13.9L20.2,13.9z"/>
</svg>
