<?xml version="1.0" encoding="utf-8"?>
<!-- Generator: Adobe Illustrator 26.5.0, SVG Export Plug-In . SVG Version: 6.00 Build 0)  -->
<svg version="1.1" id="Calque_1" xmlns="http://www.w3.org/2000/svg" xmlns:xlink="http://www.w3.org/1999/xlink" x="0px" y="0px"
	 width="15px" height="15px" viewBox="0 0 15 15" style="enable-background:new 0 0 15 15;" xml:space="preserve">
<style type="text/css">
	.st0{fill:#2D2D2D;}
</style>
<path class="st0" d="M11.1,0.9C10,0.8,8.9,1.3,8.1,2C7.9,2.2,7.7,2.4,7.6,2.6C7.4,2.3,7.2,2.2,7.1,2c-0.8-0.8-1.9-1.1-3-1.1
	C1.8,1,0,2.9,0,5.2c0,1.6,0.7,3.2,1.9,4.2l5.6,4.8l5.6-4.8C14.3,8.3,15,6.8,15,5.2C15,3,13.2,1,11.1,0.9L11.1,0.9z M12,8.3l-4.6,3.9
	L2.8,8.3C1.9,7.5,1.4,6.4,1.4,5.2c0-1.5,1.1-2.7,2.5-2.8h0.2c0.7,0,1.4,0.3,1.9,0.8s0.8,1.1,0.8,1.9v0.4h1.4V5.1
	c0-0.7,0.3-1.4,0.8-1.9s1.2-0.8,1.9-0.7c1.4,0.1,2.5,1.3,2.5,2.8C13.5,6.4,12.9,7.5,12,8.3L12,8.3z"/>
</svg>
