<?xml version="1.0" encoding="utf-8"?>
<!-- Generator: Adobe Illustrator 26.5.0, SVG Export Plug-In . SVG Version: 6.00 Build 0)  -->
<svg version="1.1" id="Calque_1" xmlns="http://www.w3.org/2000/svg" xmlns:xlink="http://www.w3.org/1999/xlink" x="0px" y="0px"
	 width="250px" height="50px" viewBox="0 0 250 50" style="enable-background:new 0 0 250 50;" xml:space="preserve">
<g>
	<path d="M84.4,37.7v-25h6.2v2.8h0.9c0.4-1,1-1.7,1.8-2.2c0.9-0.5,1.9-0.7,3-0.7h3v5.6h-3.1c-1.6,0-2.9,0.4-4,1.3
		c-1,0.9-1.6,2.2-1.6,4v14.2H84.4z"/>
	<path d="M111.5,38.4c-1.8,0-3.4-0.3-4.8-0.9c-1.4-0.6-2.5-1.5-3.3-2.7c-0.8-1.2-1.2-2.6-1.2-4.4c0-1.7,0.4-3.1,1.2-4.3
		c0.8-1.2,2-2,3.4-2.6c1.5-0.6,3.1-0.9,5-0.9h6.8v-1.4c0-1.2-0.4-2.1-1.1-2.9c-0.7-0.8-1.9-1.1-3.5-1.1c-1.6,0-2.8,0.4-3.5,1.1
		c-0.8,0.7-1.3,1.7-1.5,2.8l-5.8-2c0.4-1.3,1-2.4,1.9-3.5c0.9-1.1,2.1-1.9,3.6-2.6c1.5-0.7,3.3-1,5.5-1c3.3,0,5.9,0.8,7.8,2.5
		c1.9,1.6,2.9,4,2.9,7.1v9.3c0,1,0.5,1.5,1.4,1.5h2v5.2H124c-1.2,0-2.3-0.3-3.1-0.9c-0.8-0.6-1.2-1.4-1.2-2.4v-0.1h-1
		c-0.1,0.4-0.4,0.9-0.9,1.6c-0.5,0.7-1.2,1.2-2.2,1.7C114.6,38.1,113.2,38.4,111.5,38.4z M112.6,33.3c1.8,0,3.2-0.5,4.4-1.5
		c1.1-1,1.7-2.3,1.7-4v-0.5h-6.4c-1.2,0-2.1,0.3-2.8,0.8c-0.7,0.5-1,1.2-1,2.1s0.4,1.6,1.1,2.2C110.2,33,111.2,33.3,112.6,33.3z"/>
	<path d="M132.8,37.7v-25h6.2v2.7h0.9c0.4-0.8,1.2-1.6,2.2-2.2c1-0.6,2.3-0.9,4-0.9c1.8,0,3.2,0.3,4.3,1c1.1,0.7,1.9,1.6,2.5,2.7
		h0.9c0.6-1.1,1.4-2,2.4-2.7c1-0.7,2.5-1.1,4.4-1.1c1.5,0,2.9,0.3,4.2,1c1.3,0.7,2.3,1.6,3,3c0.8,1.3,1.1,3,1.1,5v16.4h-6.3v-16
		c0-1.4-0.4-2.4-1.1-3.1c-0.7-0.7-1.7-1-3-1c-1.4,0-2.6,0.5-3.3,1.4c-0.8,0.9-1.2,2.2-1.2,4v14.8h-6.3v-16c0-1.4-0.4-2.4-1.1-3.1
		c-0.7-0.7-1.7-1-3-1c-1.4,0-2.6,0.5-3.3,1.4c-0.8,0.9-1.2,2.2-1.2,4v14.8H132.8z"/>
	<path d="M187.2,38.4c-2.5,0-4.7-0.5-6.6-1.6c-1.9-1.1-3.4-2.6-4.4-4.5c-1.1-1.9-1.6-4.2-1.6-6.8v-0.6c0-2.6,0.5-4.9,1.6-6.8
		c1-1.9,2.5-3.4,4.4-4.5c1.9-1.1,4.1-1.6,6.5-1.6c2.4,0,4.6,0.5,6.4,1.6c1.8,1.1,3.2,2.6,4.2,4.5c1,1.9,1.5,4.2,1.5,6.7v2.2h-18.2
		c0.1,1.7,0.7,3.1,1.9,4.2c1.2,1.1,2.7,1.6,4.4,1.6c1.8,0,3.1-0.4,3.9-1.2c0.8-0.8,1.5-1.6,1.9-2.6l5.2,2.7c-0.5,0.9-1.2,1.8-2,2.8
		c-0.9,1-2.1,1.9-3.5,2.6C191.4,38,189.5,38.4,187.2,38.4z M181.1,22.3h11.7c-0.1-1.4-0.7-2.6-1.7-3.5c-1-0.9-2.4-1.3-4-1.3
		c-1.7,0-3.1,0.4-4.1,1.3C182,19.7,181.3,20.9,181.1,22.3z"/>
	<path d="M204.9,37.7v-25h6.2v2.8h0.9c0.4-1,1-1.7,1.8-2.2c0.9-0.5,1.9-0.7,3-0.7h3v5.6h-3.1c-1.6,0-2.9,0.4-4,1.3
		c-1,0.9-1.6,2.2-1.6,4v14.2H204.9z"/>
	<path d="M227.5,47.8v-5.5h13.6c0.9,0,1.4-0.5,1.4-1.5v-6.3h-0.9c-0.3,0.6-0.7,1.1-1.3,1.7c-0.6,0.6-1.3,1-2.3,1.4
		c-1,0.4-2.2,0.6-3.7,0.6c-1.9,0-3.6-0.4-5.1-1.3c-1.5-0.9-2.6-2.1-3.4-3.7c-0.8-1.6-1.2-3.4-1.2-5.4V12.7h6.3v14.4
		c0,1.9,0.5,3.3,1.4,4.2c0.9,0.9,2.2,1.4,4,1.4c1.9,0,3.5-0.6,4.5-1.9c1.1-1.3,1.6-3.1,1.6-5.4V12.7h6.3v29.4c0,1.7-0.5,3.1-1.5,4.1
		c-1,1-2.3,1.5-4,1.5H227.5z"/>
	<path d="M65.6,8.5H80V2.4H63c-1.8,0-3.2,0.5-4.2,1.5c-1.1,1-1.6,2.4-1.6,4.1v29.9h6.8V23.2h14.7v-6.1H64.1V10
		C64.1,9,64.6,8.5,65.6,8.5z"/>
	<path d="M15.8,8.3H9.5C8.5,8.3,8,8.8,8,9.8v19.3H1.2V7.8c0-1.7,0.5-3,1.5-4c1-1,2.4-1.5,4.1-1.5h23.4v6.1H15.8z"/>
	<path d="M21.1,29.1h7.3c1.2,0,1.8-0.5,1.8-1.6V8.3h6.4v21.6c0,2-0.6,3.5-1.8,4.7c-1.2,1.2-2.8,1.8-4.8,1.8H8.2v-7.3H21.1z"/>
</g>
</svg>
