<?xml version="1.0" encoding="utf-8"?>
<!-- Generator: Adobe Illustrator 26.5.0, SVG Export Plug-In . SVG Version: 6.00 Build 0)  -->
<svg version="1.1" id="Calque_1" xmlns="http://www.w3.org/2000/svg" xmlns:xlink="http://www.w3.org/1999/xlink" x="0px" y="0px"
	 width="25px" height="25px" viewBox="0 0 25 25" style="enable-background:new 0 0 25 25;" xml:space="preserve">
<style type="text/css">
	.st0{fill:#F0F0F0;}
</style>
<path class="st0" d="M12.6,0C9.9,0,7.3,0.8,5.1,2.5S1.4,6.3,0.6,9c-0.8,2.5-0.7,5.3,0.2,7.8s2.7,4.7,4.8,6.2c2.2,1.5,4.8,2.2,7.5,2
	c2.7-0.2,5.2-1.2,7.3-2.8c2-1.7,3.5-4,4.2-6.7s0.3-5.3-0.7-7.8c-1-2.3-2.5-4.2-4.7-5.5C17.4,0.8,15.1,0,12.6,0L12.6,0z M6.6,20.6
	c0.8-1.5,2-2.7,3.7-3.2c1.5-0.7,3.3-0.7,4.8,0s2.8,1.7,3.7,3.2c-1.7,1.3-3.8,2-6,2S8.3,22,6.6,20.6L6.6,20.6z M9.8,11.8
	c0-0.7,0.3-1.5,0.8-2c0.5-0.5,1.2-0.8,2-0.8c0.8,0,1.5,0.3,2,0.8c0.5,0.5,0.8,1.2,0.8,2c0,0.7-0.3,1.5-0.8,2c-0.5,0.5-1.2,0.8-2,0.8
	c-0.8,0-1.5-0.3-2-0.8C10.1,13.2,9.8,12.5,9.8,11.8z M20.4,18.8c-1-1.5-2.3-2.8-4-3.5c1-1,1.5-2.3,1.5-3.7c0-1.3-0.5-2.7-1.5-3.7
	c-1-1-2.3-1.5-3.7-1.5C11.4,6.5,10.1,7,9.1,8c-1,1-1.5,2.3-1.5,3.7s0.5,2.7,1.5,3.7c-1.7,0.7-3,2-4,3.5c-1.7-2-2.3-4.5-2.2-7
	c0.2-2.5,1.3-5,3.2-6.7s4.3-2.7,6.8-2.7s5,1,6.8,2.7s3,4.2,3.2,6.7C22.8,14.3,22.1,16.8,20.4,18.8L20.4,18.8z"/>
</svg>
