<?xml version="1.0" encoding="utf-8"?>
<!-- Generator: Adobe Illustrator 26.5.0, SVG Export Plug-In . SVG Version: 6.00 Build 0)  -->
<svg version="1.1" id="Calque_1" xmlns="http://www.w3.org/2000/svg" xmlns:xlink="http://www.w3.org/1999/xlink" x="0px" y="0px"
	 width="15px" height="15px" viewBox="0 0 15 15" style="enable-background:new 0 0 15 15;" xml:space="preserve">
<style type="text/css">
	.st0{fill:#2D2D2D;}
</style>
<g>
	<path class="st0" d="M4.6,4.3h10.1v1.6H4.6V4.3z"/>
	<path class="st0" d="M9.8,8.5h4.7v1.6H9.8V8.5z"/>
	<path class="st0" d="M9.8,12.7h4.7v1.6H9.8V12.7z"/>
	<path class="st0" d="M14.7,0.1H3.3c-0.8,0-1.5,0.3-2.1,0.9C0.6,1.5,0.3,2.2,0.3,3v6.3c0,0.8,0.3,1.5,0.9,2.1s1.3,0.9,2.1,0.9h2.3
		L4,13.9l1.1,1.1l3.5-3.5L5.1,8L4,9.1l1.6,1.6H3.3c-0.4,0-0.7-0.1-0.9-0.4C2.1,10,2,9.7,2,9.4V3.1c0-0.4,0.1-0.7,0.4-0.9
		C2.7,1.9,3,1.8,3.3,1.8h11.3V0.1z"/>
</g>
</svg>
