<?xml version="1.0" encoding="utf-8"?>
<!-- Generator: Adobe Illustrator 26.5.0, SVG Export Plug-In . SVG Version: 6.00 Build 0)  -->
<svg version="1.1" id="Calque_1" xmlns="http://www.w3.org/2000/svg" xmlns:xlink="http://www.w3.org/1999/xlink" x="0px" y="0px"
	 width="25px" height="25px" viewBox="0 0 25 25" style="enable-background:new 0 0 25 25;" xml:space="preserve">
<style type="text/css">
	.st0{fill:#F0F0F0;}
</style>
<path class="st0" d="M21.1,10.5c0-3.2-1.5-6.2-4-8.2s-5.7-2.7-8.9-2C5.1,0.9,2.6,3.1,1,5.9c-1.3,2.8-1.3,6.2,0,9c1.3,2.8,4,5,7,5.7
	c3.2,0.7,6.4,0,8.9-2l6.4,6.4l1.7-1.7L18.6,17C20.3,15.1,21.1,12.8,21.1,10.5L21.1,10.5z M10.6,18.5c-2.2,0-4.2-0.8-5.7-2.3
	s-2.3-3.5-2.3-5.7s0.8-4.2,2.3-5.7s3.5-2.3,5.7-2.3s4.2,0.8,5.7,2.3s2.3,3.5,2.3,5.7s-0.8,4.2-2.3,5.7S12.8,18.5,10.6,18.5z"/>
</svg>
